<?xml version="1.0" standalone="no"?>
<!DOCTYPE svg PUBLIC "-//W3C//DTD SVG 20010904//EN"
 "http://www.w3.org/TR/2001/REC-SVG-20010904/DTD/svg10.dtd">
<svg version="1.0" xmlns="http://www.w3.org/2000/svg"
 width="814.000000pt" height="814.000000pt" viewBox="0 0 814.000000 814.000000"
 preserveAspectRatio="xMidYMid meet">
<metadata>
Created by potrace 1.14, written by Peter Selinger 2001-2017
</metadata>
<g transform="translate(0.000000,814.000000) scale(0.100000,-0.100000)"
fill="#000000" stroke="none">
<path d="M4959 8018 c-55 -68 -115 -140 -132 -161 -18 -22 -37 -44 -42 -50 -9
-11 -60 -74 -105 -130 -8 -11 -21 -25 -27 -32 -7 -7 -44 -51 -82 -97 l-68 -85
-7 -114 c-4 -63 -9 -132 -10 -154 -5 -56 -18 -184 -22 -220 -2 -16 -6 -59 -9
-95 -3 -36 -8 -72 -10 -80 -2 -8 -7 -40 -10 -70 -3 -30 -8 -72 -10 -92 -12
-94 -16 -125 -20 -158 -5 -36 -10 -85 -20 -180 -3 -30 -7 -66 -10 -80 -8 -50
-18 -160 -16 -176 1 -15 39 -25 47 -13 3 5 12 9 20 9 8 0 13 -4 10 -8 -9 -15
-17 -384 -32 -1387 -2 -181 -5 -336 -6 -343 -1 -8 -24 -31 -52 -51 -28 -20
-156 -113 -284 -206 -128 -93 -240 -176 -250 -184 -22 -20 -80 -61 -85 -61 -5
0 -2 326 8 995 13 854 12 1085 -7 1127 -27 61 -47 64 -116 18 -58 -39 -109
-89 -182 -180 -19 -24 -39 -48 -45 -54 -5 -6 -28 -34 -50 -61 -21 -28 -42 -52
-45 -55 -3 -3 -31 -36 -62 -75 -31 -38 -76 -90 -99 -115 -61 -66 -66 -84 -73
-237 -3 -56 -8 -122 -11 -145 -3 -24 -12 -101 -21 -173 -21 -170 -27 -306 -40
-800 -4 -159 -7 -412 -8 -561 l-1 -271 -30 -26 c-17 -15 -33 -27 -38 -27 -4 0
-15 -8 -25 -18 -10 -9 -72 -57 -137 -107 -65 -49 -123 -94 -129 -100 -6 -5
-38 -30 -71 -55 -33 -24 -65 -49 -72 -55 -23 -19 -37 -30 -163 -125 -68 -52
-131 -100 -140 -107 -34 -28 -89 -69 -110 -83 -34 -24 -204 -148 -217 -160 -7
-5 -15 -10 -19 -10 -3 0 -18 -13 -32 -29 -28 -29 -32 -34 -117 -136 -27 -33
-58 -69 -69 -80 -10 -11 -30 -36 -44 -55 -15 -19 -29 -37 -32 -40 -3 -3 -52
-61 -109 -130 -112 -135 -109 -131 -191 -215 -45 -45 -52 -58 -40 -65 8 -6 21
-8 29 -5 32 12 266 20 551 19 283 -1 359 -4 450 -20 19 -3 51 -8 70 -10 19 -2
51 -7 70 -10 19 -3 50 -7 69 -10 51 -6 109 -17 181 -34 25 -5 59 -12 75 -15
17 -4 35 -7 40 -9 6 -1 30 -8 55 -15 25 -8 50 -14 55 -15 25 -5 121 -40 131
-48 7 -5 12 -42 13 -86 1 -42 4 -167 8 -277 3 -110 6 -219 6 -242 1 -24 3 -43
6 -43 3 0 6 -30 7 -68 0 -61 8 -165 20 -275 7 -66 16 -118 35 -217 16 -76 15
-72 27 -103 7 -15 15 -39 18 -53 4 -14 17 -32 30 -41 27 -18 54 -13 129 21
102 48 329 117 395 121 36 2 76 6 90 9 27 6 53 34 44 48 -3 5 1 17 10 27 9 10
19 31 22 47 3 16 14 36 25 44 13 10 21 32 24 65 3 28 7 66 10 85 7 54 18 208
19 275 2 62 -5 97 -47 250 -14 50 -24 91 -22 93 3 3 156 -69 165 -78 3 -3 23
-13 45 -23 97 -45 389 -230 463 -294 23 -20 34 -40 38 -68 9 -68 11 -78 40
-220 34 -166 39 -180 57 -168 7 4 17 9 22 10 6 1 77 27 158 57 82 31 165 58
185 62 20 4 43 11 50 17 6 5 12 7 12 4 0 -7 83 16 162 45 40 14 59 27 64 42 3
11 17 31 32 43 16 14 27 34 28 54 2 18 10 36 18 41 20 11 20 46 0 164 -15 91
-15 95 4 133 23 43 28 75 19 111 -4 14 -9 43 -11 65 -3 22 -7 51 -10 65 -11
58 -36 236 -42 300 -3 30 -8 66 -10 80 -7 36 -11 75 -19 160 -12 143 -16 195
-21 235 -2 22 -6 76 -9 120 -3 44 -7 103 -9 130 -6 58 -16 187 -21 265 -2 30
-6 87 -9 125 -25 307 -25 289 -39 1518 -2 109 0 201 3 206 8 11 260 181 270
181 5 0 10 4 12 8 2 4 35 28 73 53 101 67 288 184 305 192 8 4 34 20 57 35 98
63 298 188 312 194 12 6 306 192 391 248 25 16 225 144 227 145 4 1 12 61 18
130 7 90 15 133 31 171 20 48 11 192 -16 244 -23 45 -19 46 -100 -15 -61 -46
-171 -122 -211 -145 -30 -17 -265 -161 -321 -196 -21 -13 -55 -35 -75 -48 -57
-36 -395 -246 -418 -259 -11 -7 -33 -21 -50 -33 -16 -11 -61 -40 -100 -64 -38
-23 -72 -46 -75 -49 -3 -3 -32 -24 -65 -46 -33 -22 -61 -43 -63 -47 -2 -5 -8
-8 -12 -8 -5 0 -50 -29 -99 -65 -50 -36 -93 -65 -96 -65 -4 0 -4 276 0 613 9
946 11 2385 3 2452 -19 152 -47 208 -107 213 -27 2 -40 -10 -132 -120z m-563
-4790 c1 -277 5 -566 8 -643 7 -190 17 -406 21 -485 2 -36 6 -112 9 -170 3
-58 8 -143 11 -190 5 -79 8 -124 20 -315 6 -83 15 -202 19 -230 3 -29 -4 -38
-20 -24 -14 11 -110 64 -199 110 -324 165 -420 219 -418 236 4 42 14 109 18
123 2 8 7 42 10 75 4 33 8 74 10 90 4 28 14 123 20 190 2 17 6 62 10 100 18
186 15 197 -41 145 -79 -75 -88 -85 -89 -100 -10 -101 -19 -174 -31 -245 -3
-22 -7 -48 -7 -57 -1 -10 -4 -18 -8 -18 -4 0 -7 145 -8 323 -1 177 -3 499 -5
715 l-3 392 36 27 c20 15 41 31 46 36 6 4 44 33 85 63 95 70 128 95 153 117
11 9 23 17 27 17 4 0 16 8 28 18 46 39 59 49 102 78 151 103 175 120 179 127
12 28 14 -55 17 -505z m-1420 -944 c0 -394 0 -396 -20 -391 -12 3 -66 21 -121
41 -55 20 -109 39 -120 41 -11 3 -31 9 -45 14 -45 17 -267 78 -305 85 -108 17
-155 30 -144 39 8 7 172 132 198 152 123 93 509 389 521 400 8 7 20 14 25 14
7 1 11 -132 11 -395z"/>
<path d="M6855 4968 c-107 -55 -159 -96 -240 -193 -22 -26 -58 -69 -80 -94
-22 -26 -59 -69 -82 -96 -23 -28 -51 -61 -63 -75 -12 -14 -35 -41 -52 -60 -84
-99 -172 -194 -253 -274 -82 -81 -88 -89 -71 -101 18 -14 36 -13 116 6 25 5
47 9 50 8 3 -1 14 3 26 9 20 11 261 76 320 86 105 19 139 30 161 52 13 13 22
28 19 33 -11 16 23 32 76 37 69 6 96 26 136 106 40 77 45 114 48 347 1 156 -5
220 -25 243 -3 4 -42 -11 -86 -34z"/>
</g>
</svg>
