<svg xmlns="http://www.w3.org/2000/svg" viewBox="0 0 511.76 830"><path d="M181.77,693c-12.16,0-15.49-13.33-17.48-21.3-4.45-17.75-7-50.38-7.74-97.05-18.54-6.06-38.86-8.8-52.8-10.68-2-.27-3.92-.52-5.65-.77-6.35-.89-16.27-1.36-28.71-1.36-18.5,0-36.77,1-40.6,1.41-.67.07-1.39.18-2.09.28a35.66,35.66,0,0,1-5.06.48c-7.69,0-10.33-5.35-11-7-2.88-7.56,3.46-13.2,6.51-15.91,3.28-2.91,16.05-18.36,25.38-29.64C62,488,64,485.8,66.76,484.23c2.07-1.25,15.21-10.85,26.7-19.4,8.26-6.23,35.9-27.61,62.88-48.51V384.88c.06-3,1.41-73,2.58-85.09.43-4.54,1.08-9.63,1.7-14.56,1-8.08,2.08-16.44,2.23-22.32l0-1.1c.25-10.13.45-18.13,10-26.83,1.81-1.81,10.58-12.58,16.39-19.71,8.21-10.08,11.7-14.34,13.21-15.86,5.94-6,14.43-13.11,21.13-13.11h.49c2.4.09,8.54,1.15,12.15,9.13,2.22,4.9,3.23,12.06,3.09,21.88l-.19,12.38c-.42,27.93-1.31,86.73-1.78,124.13,5-3.71,17.71-12.89,35.13-25.41.25-22.39,1.16-98.15,2.19-127.76a11.07,11.07,0,0,1-2.79-2.33c-2.52-2.89-3.46-6.78-2.8-11.56.34-2.47,1.24-10.29,2.29-19.34,1.52-13.11,3.41-29.44,4.75-39.57,2.32-17.68,4.7-47.11,4.51-51.41a10,10,0,0,1,2.33-7.67c1.42-1.67,9.21-11.13,17.46-21.15C325,17.68,327.41,14.88,328.32,14a14.3,14.3,0,0,1,10-4c5.71,0,10.93,3.16,14.3,8.66,4.65,7.58,5.72,18.58,5.72,58.87,0,34.34-1.37,165-1.64,190.9,6.65-4.64,12.07-8.38,15.16-10.43,18.41-12.07,64.44-40.45,77.16-48a270.54,270.54,0,0,0,26.3-18.15,10.88,10.88,0,0,1,6.74-2.36c9.54,0,14.54,11.51,14.54,22.88v1.73c0,5.05.08,10.25-2.55,14.41-.52,2.73-1.07,9.12-1.35,12.37a71.26,71.26,0,0,1-.85,7.53,10,10,0,0,1-3.73,5.82c-6.65,5-45.49,29.25-84.7,53.63l-13.91,8.65c-5.72,3.57-16.33,10.63-32.35,21.52.44,43.52,1,88.71,1.14,98.47.31,17.23,6.85,98.77,8.41,113.38,1.69,15.91,5.94,44.09,6.61,47.24,1.08,5,1.45,10.43-2.55,16,0,.2.09.4.12.59.27,1.27.6,2.85.87,4.74.17,1.22.4,2.45.62,3.65.8,4.36,2.07,11.22-2.21,16a11.84,11.84,0,0,1-5.26,9.28c-1.73,6-8.47,8.19-11.95,9.35s-8.22,2.44-12.7,3.66c-3.46.94-7,1.91-9.9,2.78-8.8,2.7-26,9.35-26.15,9.42a10,10,0,0,1-13.35-7.06c-2.22-9.51-4.53-20-6.56-32.62a267.11,267.11,0,0,0-33-21c.82,4.32.87,8.71.28,17.87-.54,8.46-1.19,14.38-1.61,18.3-.21,1.88-.37,3.37-.41,4.19-.29,5.16-2.16,8.47-4.43,10.59a13.4,13.4,0,0,1-2,5c-.69,6-6.64,12.53-21.68,12.53l-1.85,0c-5.69,1.57-20.19,6.37-25.53,8.71l-2,.89C188.76,691.57,185.6,693,181.77,693ZM248,555.3c9.89,5,19.9,10.16,29.92,15.55-2.86-40.23-6.18-102.11-6.17-149.1,0-6.76,0-15,.08-24.24l-.39.28c-3.89,2.76-15.41,11.3-34.26,25.4.16,24.66.4,52.93.58,66.06a10.94,10.94,0,0,1,4.87-1.15,10.73,10.73,0,0,1,7.84,3.43c3.33,3.59,3.43,8.31,3.15,12S251,535.14,248,555.3ZM127.15,506.41q13.36,3.43,29.21,9V484C148.13,490.3,136.63,499.12,127.15,506.41Z"/><path d="M338.34,20c1.79,0,4,.95,5.78,3.89,3.11,5.08,4.24,15.26,4.24,53.64s-1.69,195.26-1.69,195.26c0,3.14,0,8.28.07,14.87,14.3-10.11,25.79-18.08,30.68-21.34,18.08-11.85,64.34-40.37,76.76-47.71a282,282,0,0,0,27.38-18.89.76.76,0,0,1,.52-.2c1.77,0,4.54,5.75,4.54,12.88,0,4.79.27,9.62-1.41,11.31s-2.55,20-3.11,22.58c-8.17,6.19-76.16,48.24-97.86,61.77-7.2,4.49-21.18,13.89-37.11,24.75.43,42.77,1,93.19,1.19,103.88.31,17.51,6.78,98.47,8.46,114.28s5.94,44.31,6.78,48.26.87,6.19-1.69,9-.83,5.65,0,11.59,2.52,10.7.27,12.12-2,3.11-2,4.52.55,2-2,3.39-2.85,2.26-2.83,4.51-17.5,6.08-27.9,9.27c-9.25,2.84-26.83,9.65-26.83,9.65-2.79-11.94-5.08-22.82-7-35.85-14.41-11.22-32.83-22.8-57.66-34.42,1.48,5.87,2.78,10.74,4.3,15.8,1.69,5.71,2.22,7.67,1.41,20.38s-1.86,19.48-2,22.58-1,4-2.44,4.53-1.7,1.67-1.7,3.37-.31,2.84-1.69,3.68-.56,2.54-.56,3.38-2.21,3.74-11.75,3.74c-.91,0-1.88,0-2.92-.08a282.16,282.16,0,0,0-28.48,9.6c-3.61,1.58-6.2,3-8.3,3-3.13,0-5.14-3.17-7.78-13.73-5.19-20.73-7.12-62.16-7.53-101.72-23.85-9.09-51.62-12.09-67-14.25-7.76-1.09-18.88-1.46-30.1-1.46-18.37,0-37,1-41.61,1.46-2.11.22-4.56.71-6.14.71-2.28,0-2.75-1,2.21-5.44,7.47-6.63,44.53-53.73,47.92-55.69s27.67-20,27.67-20c8.5-6.42,37.31-28.7,66.9-51.62V385.07s1.39-72.48,2.53-84.32,3.72-27.43,4-37.58.12-14.79,6.78-20.86c3.26-3,26.94-32.87,29.9-35.85,5-5.05,11.63-10.16,14-10.16h.07c1.41,0,5.94,1.69,5.66,20.87-.26,17.1-1.85,120.31-2.2,157.07,7.5-5.76,12.85-9.88,14.88-11.41,4.06-3.05,20.37-14.83,40.42-29.24.7-64.73,1.86-136.15,2.77-142.91-1.52.69-3.25,1.59-4.51,1.59s-2.13-1-1.7-4.13c.86-6.2,4.79-41.75,7.05-59s5.1-50.22,4.53-53.89c3.61-4.23,43.39-52.77,44.82-54.18a4.35,4.35,0,0,1,3-1.09M282,378.17c-7.77,5.44-13.62,9.56-16.3,11.45-4.81,3.43-20.41,15-38.51,28.58.19,30.15.51,68.35.71,76.93.28,12.69,0,42.33,0,42.33,2.54-6.17,4.24-29,4.51-30.15,5.64-5.36,7-6.52,9-8.48a2,2,0,0,1,1.24-.73c1,0,1.23,1.95,1,4.69-.2,3-3.09,38.21-6.72,58.17,17.67,8.72,35.36,18,52.36,27.5-2.83-34.6-7.55-111-7.54-166.7,0-11,.07-26.22.21-43.59M103.69,511.82h0c17.12,2.33,38.79,8.8,62.67,17.92V463.92c-5.74,4.3-10,7.49-11.91,9-15.2,11.6-50.75,38.94-50.76,38.94M338.34,0h0a24.38,24.38,0,0,0-17,6.86c-1.21,1.2-1.57,1.56-28.67,34.47-7.83,9.52-15.94,19.36-17.3,21A20,20,0,0,0,270.61,77c0,5.41-2.29,33.21-4.44,49.54-1.34,10.2-3.24,26.56-4.76,39.7-1,8.63-1.94,16.78-2.27,19.14-1.33,9.68,2.07,15.95,5.17,19.5.06.07.13.14.19.22-.9,29.47-1.65,87.88-2,118.14-5.57,4-10.58,7.61-14.93,10.75.49-36,1.17-80.88,1.52-104.23l.18-12.31c.17-11.48-1.09-19.79-4-26.15-4.09-9-11.9-14.65-20.89-15l-.86,0h0c-3.06,0-12.29,0-28.2,16.06-1.77,1.78-4.54,5.13-13.87,16.59-5.08,6.23-13.5,16.57-15.66,18.9-12.38,11.49-12.67,23.29-12.93,33.71l0,1.1c-.13,5.38-1.16,13.48-2.15,21.32-.63,5-1.28,10.17-1.74,14.86-1.18,12.25-2.48,78.35-2.62,85.84v26.74c-25.63,19.85-51,39.47-58.9,45.43C76.91,464.68,64.13,474,61.55,475.69c-4.23,2.48-6.72,5.26-26.68,29.4-8.43,10.2-21.17,25.61-24.34,28.56a43.19,43.19,0,0,0-5.79,6.06c-6.81,9-4.65,17.58-3.4,20.86,2.47,6.5,9.1,13.44,20.3,13.44a43.61,43.61,0,0,0,6.49-.59c.63-.09,1.29-.18,1.69-.22,3.66-.37,21.41-1.36,39.57-1.36,15.13,0,23.21.69,27.32,1.27l5.7.77c11.85,1.6,28.46,3.84,44.27,8.23.86,43.58,3.52,74.5,7.91,92,1.84,7.37,3.57,12.16,5.8,16,4.75,8.18,12.54,12.87,21.38,12.87,6,0,10.69-2.12,14.46-3.83.58-.26,1.18-.54,1.83-.82l.05,0c4.69-2.06,17.09-6.16,22.81-7.84h.55c20.74,0,28.9-10.22,31.09-18.74a22.39,22.39,0,0,0,1.71-4,25.39,25.39,0,0,0,5.31-14.86c0-.56.21-2.21.37-3.66.43-4,1.09-10.06,1.65-18.74l.06-.94q7.06,4.43,13.46,9c1.9,11.13,4,20.6,6,29.26A20,20,0,0,0,307.85,682c4.7-1.82,18.45-7,25.46-9.18,2.7-.82,6.2-1.77,9.59-2.69,4.61-1.25,9.38-2.55,13.22-3.82a47.87,47.87,0,0,0,6.72-2.69,22.28,22.28,0,0,0,10.25-9.9,21.18,21.18,0,0,0,6.68-11.77,24.12,24.12,0,0,0,3.5-13.13,49.16,49.16,0,0,0-1-8.5c-.21-1.14-.41-2.22-.55-3.24-.11-.75-.22-1.46-.34-2.12,4.19-8.52,2.51-16.43,1.78-19.84s-4.81-30.81-6.45-46.22c-1.78-16.67-8.06-96.39-8.35-112.51-.17-10.25-.68-54.12-1.09-93,13.45-9.12,22.52-15.13,27.59-18.29l13.93-8.67c49.31-30.65,79.1-49.34,85.43-54.13a20,20,0,0,0,7.45-11.62,70.2,70.2,0,0,0,1.05-8.84c.22-2.49.62-7.13,1-9.9,3-6.08,3-12.66,2.95-17.82V212.4a45.37,45.37,0,0,0-3-16.4c-6-15.3-18-16.48-21.56-16.48a20.8,20.8,0,0,0-12.91,4.5,264.83,264.83,0,0,1-25.27,17.43c-12.75,7.54-58.26,35.6-77,47.84.47-45.43,1.44-142.79,1.44-171.76,0-43.07-1.28-54.45-7.19-64.09C355.93,4.9,347.61,0,338.34,0ZM247.22,428.17l14.53-10.84v4.43c0,40.69,2.46,92.47,5,131.88q-3.93-2-7.83-4c2.7-20.2,4.52-43.23,4.68-45.32h0c.23-3,.93-12.3-5.8-19.56a20.82,20.82,0,0,0-10.16-6c-.14-13.43-.3-32.58-.42-50.55Z" style="fill:#fff"/><path d="M415.8,361.82c-5.72,0-10.46-3.18-12.07-8.1-2-5.94.88-11.76,8.41-17.29,3.92-3,24.41-26.49,42-47.45,5.41-6.61,11.52-13.46,21.28-18.36,1.37-.69,2.57-1.31,3.62-1.86,4.27-2.21,6.85-3.55,10.22-3.55a10.62,10.62,0,0,1,8,3.48,10.78,10.78,0,0,1,2.65,5.46c1.67,4.6,1.92,11.46,1.92,21.53,0,7.44-.35,20.82-2.7,26.95-2.89,7.57-5.24,10.76-7.22,13.15l-.25.3c-2.83,3.52-7.73,5.77-13.37,6.21-2.61,4.27-7.9,8-17,9-4.91.55-15.79,3.29-29.86,7.52C422.35,361.57,419.94,361.82,415.8,361.82ZM475,342.42Z"/><path d="M489.22,275.21c.66,0,.89.46.79,1.52,2.25,1.41,2.51,35-.29,42.33s-4.79,9.34-5.92,10.75-4.23,2.55-7.61,2.55-5.93.54-5.93,2.81-2.51,5.37-10.14,6.23-23.17,5.34-31.63,7.88-9.88,2.54-12.69,2.54-4.95-2,2.26-7.33c6.77-5,43.74-49.13,43.74-49.13,5.07-6.19,10.16-11.84,18.06-15.8,5.2-2.61,8.08-4.35,9.36-4.35m0-20c-5.82,0-10,2.17-14.83,4.68-1,.53-2.17,1.13-3.5,1.79-11.49,5.77-18.67,13.82-24.49,20.93-16,19.12-35.88,41.95-40.48,46a38.05,38.05,0,0,0-8.12,7.89,22.46,22.46,0,0,0-3.57,20.36c3,9.1,11.45,15,21.57,15,5.38,0,8.8-.49,18.45-3.39,15.68-4.71,24.79-6.78,28.09-7.15,9.74-1.1,16.76-4.82,21.33-9.72a27.66,27.66,0,0,0,15.72-9.22l.15-.19c2.67-3.23,5.59-7.39,8.86-15.95,3.35-8.76,3.36-25.14,3.36-30.52s-.18-10.52-.53-14.49a42,42,0,0,0-1.77-9.92,21.1,21.1,0,0,0-4.87-9.31,20.82,20.82,0,0,0-15.37-6.75Z" style="fill:#fff"/><path d="M267.41,820a10,10,0,0,1-6.36-2.28l-99.61-82.06a10,10,0,0,1,6.35-17.72c.31,0,.61,0,.91,0l98.06,8.92,119.85-26.66a10.18,10.18,0,0,1,2.18-.24,10,10,0,0,1,6.35,17.72l-121.38,100A10,10,0,0,1,267.41,820Z"/><path d="M388.79,710,267.41,810,167.8,727.94,267.41,737l121.38-27m0-20a20.2,20.2,0,0,0-4.35.48L266.11,716.8,169.61,708c-.61-.06-1.22-.09-1.82-.09a20,20,0,0,0-12.71,35.44l99.61,82.06a20,20,0,0,0,25.43,0l121.38-100A20,20,0,0,0,388.79,690Z" style="fill:#fff"/></svg>